<svg width="177" height="29" viewBox="0 0 177 29" fill="none" xmlns="http://www.w3.org/2000/svg">
<path d="M8.12 23.3C6.5 23.3 5.12 23.04 3.98 22.52C2.86 22 2 21.33 1.4 20.51C0.8 19.69 0.48 18.82 0.44 17.9C0.44 17.74 0.5 17.6 0.62 17.48C0.74 17.36 0.89 17.3 1.07 17.3H1.67C1.87 17.3 2.02 17.36 2.12 17.48C2.24 17.6 2.31 17.74 2.33 17.9C2.41 18.46 2.66 19.02 3.08 19.58C3.5 20.12 4.12 20.58 4.94 20.96C5.76 21.32 6.82 21.5 8.12 21.5C10.08 21.5 11.51 21.15 12.41 20.45C13.31 19.73 13.76 18.77 13.76 17.57C13.76 16.77 13.52 16.13 13.04 15.65C12.58 15.15 11.87 14.71 10.91 14.33C9.95 13.93 8.72 13.49 7.22 13.01C5.8 12.55 4.63 12.08 3.71 11.6C2.79 11.1 2.11 10.5 1.67 9.8C1.25 9.1 1.04 8.2 1.04 7.1C1.04 6.08 1.31 5.17 1.85 4.37C2.39 3.55 3.17 2.9 4.19 2.42C5.23 1.94 6.49 1.7 7.97 1.7C9.15 1.7 10.18 1.86 11.06 2.18C11.94 2.5 12.67 2.93 13.25 3.47C13.83 3.99 14.27 4.56 14.57 5.18C14.87 5.78 15.03 6.37 15.05 6.95C15.05 7.09 15 7.23 14.9 7.37C14.8 7.49 14.64 7.55 14.42 7.55H13.82C13.72 7.55 13.59 7.51 13.43 7.43C13.29 7.35 13.2 7.19 13.16 6.95C13.04 5.95 12.51 5.13 11.57 4.49C10.65 3.83 9.45 3.5 7.97 3.5C6.49 3.5 5.28 3.79 4.34 4.37C3.4 4.95 2.93 5.86 2.93 7.1C2.93 7.9 3.14 8.56 3.56 9.08C3.98 9.58 4.64 10.03 5.54 10.43C6.44 10.81 7.6 11.23 9.02 11.69C10.52 12.17 11.76 12.65 12.74 13.13C13.72 13.61 14.45 14.2 14.93 14.9C15.41 15.58 15.65 16.47 15.65 17.57C15.65 18.79 15.34 19.83 14.72 20.69C14.12 21.53 13.26 22.18 12.14 22.64C11.02 23.08 9.68 23.3 8.12 23.3ZM20.2841 23C20.0841 23 19.9241 22.94 19.8041 22.82C19.6841 22.7 19.6241 22.54 19.6241 22.34V2.36C19.6241 2.16 19.6841 2 19.8041 1.88C19.9241 1.76 20.0841 1.7 20.2841 1.7H20.7941C20.9941 1.7 21.1541 1.76 21.2741 1.88C21.3941 2 21.4541 2.16 21.4541 2.36V9.47C21.9941 8.77 22.6441 8.2 23.4041 7.76C24.1841 7.32 25.2141 7.1 26.4941 7.1C27.8541 7.1 28.9841 7.4 29.8841 8C30.8041 8.58 31.4841 9.38 31.9241 10.4C32.3841 11.4 32.6141 12.54 32.6141 13.82V22.34C32.6141 22.54 32.5541 22.7 32.4341 22.82C32.3141 22.94 32.1541 23 31.9541 23H31.4441C31.2441 23 31.0841 22.94 30.9641 22.82C30.8441 22.7 30.7841 22.54 30.7841 22.34V13.97C30.7841 12.37 30.3941 11.12 29.6141 10.22C28.8341 9.3 27.6941 8.84 26.1941 8.84C24.7741 8.84 23.6241 9.3 22.7441 10.22C21.8841 11.12 21.4541 12.37 21.4541 13.97V22.34C21.4541 22.54 21.3941 22.7 21.2741 22.82C21.1541 22.94 20.9941 23 20.7941 23H20.2841ZM43.2587 23.3C41.8187 23.3 40.6087 23 39.6287 22.4C38.6687 21.8 37.9287 20.98 37.4087 19.94C36.9087 18.9 36.6387 17.74 36.5987 16.46C36.5787 16.16 36.5687 15.74 36.5687 15.2C36.5687 14.66 36.5787 14.24 36.5987 13.94C36.6387 12.64 36.9087 11.48 37.4087 10.46C37.9287 9.42 38.6687 8.6 39.6287 8C40.6087 7.4 41.8187 7.1 43.2587 7.1C44.6987 7.1 45.8987 7.4 46.8587 8C47.8387 8.6 48.5787 9.42 49.0787 10.46C49.5987 11.48 49.8787 12.64 49.9187 13.94C49.9387 14.24 49.9487 14.66 49.9487 15.2C49.9487 15.74 49.9387 16.16 49.9187 16.46C49.8787 17.74 49.5987 18.9 49.0787 19.94C48.5787 20.98 47.8387 21.8 46.8587 22.4C45.8987 23 44.6987 23.3 43.2587 23.3ZM43.2587 21.56C44.6587 21.56 45.7987 21.11 46.6787 20.21C47.5587 19.31 48.0287 18.01 48.0887 16.31C48.1087 16.01 48.1187 15.64 48.1187 15.2C48.1187 14.76 48.1087 14.39 48.0887 14.09C48.0287 12.37 47.5587 11.07 46.6787 10.19C45.7987 9.29 44.6587 8.84 43.2587 8.84C41.8587 8.84 40.7187 9.29 39.8387 10.19C38.9587 11.07 38.4887 12.37 38.4287 14.09C38.4087 14.39 38.3987 14.76 38.3987 15.2C38.3987 15.64 38.4087 16.01 38.4287 16.31C38.4887 18.01 38.9587 19.31 39.8387 20.21C40.7187 21.11 41.8587 21.56 43.2587 21.56ZM54.7372 28.7C54.5372 28.7 54.3772 28.64 54.2572 28.52C54.1372 28.4 54.0772 28.24 54.0772 28.04V8.06C54.0772 7.86 54.1372 7.7 54.2572 7.58C54.3772 7.46 54.5372 7.4 54.7372 7.4H55.2472C55.4472 7.4 55.6072 7.46 55.7272 7.58C55.8472 7.7 55.9072 7.86 55.9072 8.06V9.47C56.4072 8.79 57.0572 8.23 57.8572 7.79C58.6772 7.33 59.7072 7.1 60.9472 7.1C62.1272 7.1 63.1172 7.31 63.9172 7.73C64.7172 8.13 65.3672 8.67 65.8672 9.35C66.3672 10.03 66.7372 10.79 66.9772 11.63C67.2172 12.47 67.3472 13.33 67.3672 14.21C67.3872 14.51 67.3972 14.84 67.3972 15.2C67.3972 15.56 67.3872 15.89 67.3672 16.19C67.3472 17.07 67.2172 17.93 66.9772 18.77C66.7372 19.61 66.3672 20.37 65.8672 21.05C65.3672 21.73 64.7172 22.28 63.9172 22.7C63.1172 23.1 62.1272 23.3 60.9472 23.3C59.7072 23.3 58.6772 23.07 57.8572 22.61C57.0572 22.15 56.4072 21.59 55.9072 20.93V28.04C55.9072 28.24 55.8472 28.4 55.7272 28.52C55.6072 28.64 55.4472 28.7 55.2472 28.7H54.7372ZM60.7672 21.56C61.9472 21.56 62.8772 21.3 63.5572 20.78C64.2372 20.26 64.7272 19.58 65.0272 18.74C65.3272 17.9 65.4972 17 65.5372 16.04C65.5572 15.48 65.5572 14.92 65.5372 14.36C65.4972 13.4 65.3272 12.5 65.0272 11.66C64.7272 10.82 64.2372 10.14 63.5572 9.62C62.8772 9.1 61.9472 8.84 60.7672 8.84C59.6272 8.84 58.7072 9.11 58.0072 9.65C57.3072 10.19 56.7872 10.87 56.4472 11.69C56.1272 12.49 55.9472 13.3 55.9072 14.12C55.8872 14.42 55.8772 14.81 55.8772 15.29C55.8772 15.77 55.8872 16.16 55.9072 16.46C55.9272 17.26 56.1072 18.05 56.4472 18.83C56.8072 19.61 57.3372 20.26 58.0372 20.78C58.7572 21.3 59.6672 21.56 60.7672 21.56ZM78.7988 23C77.5188 23 76.4088 22.8 75.4688 22.4C74.5488 21.98 73.8388 21.34 73.3388 20.48C72.8388 19.6 72.5888 18.47 72.5888 17.09V11.33H70.2488C70.0288 11.33 69.8388 11.26 69.6788 11.12C69.5388 10.98 69.4688 10.8 69.4688 10.58V8.15C69.4688 7.93 69.5388 7.75 69.6788 7.61C69.8388 7.47 70.0288 7.4 70.2488 7.4H72.5888V2.45C72.5888 2.23 72.6588 2.05 72.7988 1.91C72.9588 1.77 73.1388 1.7 73.3388 1.7H76.8188C77.0388 1.7 77.2188 1.77 77.3588 1.91C77.4988 2.05 77.5688 2.23 77.5688 2.45V7.4H81.3188C81.5388 7.4 81.7188 7.47 81.8588 7.61C81.9988 7.75 82.0688 7.93 82.0688 8.15V10.58C82.0688 10.8 81.9988 10.98 81.8588 11.12C81.7188 11.26 81.5388 11.33 81.3188 11.33H77.5688V16.67C77.5688 17.35 77.6988 17.89 77.9588 18.29C78.2188 18.69 78.6588 18.89 79.2788 18.89H81.5888C81.8088 18.89 81.9888 18.96 82.1288 19.1C82.2688 19.24 82.3388 19.42 82.3388 19.64V22.25C82.3388 22.47 82.2688 22.65 82.1288 22.79C81.9888 22.93 81.8088 23 81.5888 23H78.7988ZM85.5727 23C85.3527 23 85.1727 22.93 85.0327 22.79C84.8927 22.65 84.8227 22.47 84.8227 22.25V8.15C84.8227 7.95 84.8927 7.78 85.0327 7.64C85.1727 7.48 85.3527 7.4 85.5727 7.4H89.0227C89.2427 7.4 89.4227 7.48 89.5627 7.64C89.7027 7.78 89.7727 7.95 89.7727 8.15V9.35C90.3127 8.73 90.9527 8.25 91.6927 7.91C92.4527 7.57 93.3027 7.4 94.2427 7.4H95.5627C95.7627 7.4 95.9327 7.47 96.0727 7.61C96.2327 7.75 96.3127 7.93 96.3127 8.15V11.24C96.3127 11.44 96.2327 11.62 96.0727 11.78C95.9327 11.92 95.7627 11.99 95.5627 11.99H92.6527C91.8327 11.99 91.1927 12.22 90.7327 12.68C90.2927 13.12 90.0727 13.75 90.0727 14.57V22.25C90.0727 22.47 89.9927 22.65 89.8327 22.79C89.6927 22.93 89.5127 23 89.2927 23H85.5727ZM105.709 23.3C104.029 23.3 102.609 23.03 101.449 22.49C100.309 21.95 99.4286 21.18 98.8086 20.18C98.2086 19.16 97.8686 17.95 97.7886 16.55C97.7686 16.15 97.7586 15.7 97.7586 15.2C97.7586 14.68 97.7686 14.23 97.7886 13.85C97.8686 12.43 98.2286 11.22 98.8686 10.22C99.5086 9.22 100.399 8.45 101.539 7.91C102.699 7.37 104.089 7.1 105.709 7.1C107.349 7.1 108.739 7.37 109.879 7.91C111.039 8.45 111.939 9.22 112.579 10.22C113.219 11.22 113.579 12.43 113.659 13.85C113.679 14.23 113.689 14.68 113.689 15.2C113.689 15.7 113.679 16.15 113.659 16.55C113.579 17.95 113.229 19.16 112.609 20.18C112.009 21.18 111.129 21.95 109.969 22.49C108.829 23.03 107.409 23.3 105.709 23.3ZM105.709 19.64C106.609 19.64 107.259 19.37 107.659 18.83C108.079 18.29 108.319 17.48 108.379 16.4C108.399 16.1 108.409 15.7 108.409 15.2C108.409 14.7 108.399 14.3 108.379 14C108.319 12.94 108.079 12.14 107.659 11.6C107.259 11.04 106.609 10.76 105.709 10.76C104.829 10.76 104.179 11.04 103.759 11.6C103.339 12.14 103.109 12.94 103.069 14C103.049 14.3 103.039 14.7 103.039 15.2C103.039 15.7 103.049 16.1 103.069 16.4C103.109 17.48 103.339 18.29 103.759 18.83C104.179 19.37 104.829 19.64 105.709 19.64ZM117.389 23C117.169 23 116.989 22.93 116.849 22.79C116.709 22.65 116.639 22.47 116.639 22.25V8.15C116.639 7.93 116.709 7.75 116.849 7.61C116.989 7.47 117.169 7.4 117.389 7.4H120.839C121.059 7.4 121.239 7.47 121.379 7.61C121.519 7.75 121.589 7.93 121.589 8.15V9.29C122.109 8.67 122.789 8.15 123.629 7.73C124.469 7.31 125.459 7.1 126.599 7.1C127.759 7.1 128.779 7.36 129.659 7.88C130.559 8.4 131.259 9.17 131.759 10.19C132.279 11.19 132.539 12.42 132.539 13.88V22.25C132.539 22.47 132.459 22.65 132.299 22.79C132.159 22.93 131.989 23 131.789 23H128.009C127.809 23 127.629 22.93 127.469 22.79C127.329 22.65 127.259 22.47 127.259 22.25V14.06C127.259 13.12 127.029 12.4 126.569 11.9C126.129 11.38 125.469 11.12 124.589 11.12C123.769 11.12 123.109 11.38 122.609 11.9C122.129 12.4 121.889 13.12 121.889 14.06V22.25C121.889 22.47 121.809 22.65 121.649 22.79C121.509 22.93 121.339 23 121.139 23H117.389ZM136.637 23C136.417 23 136.237 22.93 136.097 22.79C135.957 22.65 135.887 22.47 135.887 22.25V8.15C135.887 7.93 135.957 7.75 136.097 7.61C136.237 7.47 136.417 7.4 136.637 7.4H140.177C140.377 7.4 140.547 7.47 140.687 7.61C140.847 7.75 140.927 7.93 140.927 8.15V22.25C140.927 22.47 140.847 22.65 140.687 22.79C140.547 22.93 140.377 23 140.177 23H136.637ZM136.607 5.15C136.387 5.15 136.207 5.08 136.067 4.94C135.927 4.8 135.857 4.62 135.857 4.4V1.73C135.857 1.51 135.927 1.33 136.067 1.19C136.207 1.03 136.387 0.95 136.607 0.95H140.177C140.397 0.95 140.577 1.03 140.717 1.19C140.877 1.33 140.957 1.51 140.957 1.73V4.4C140.957 4.62 140.877 4.8 140.717 4.94C140.577 5.08 140.397 5.15 140.177 5.15H136.607ZM151.758 23.3C150.278 23.3 148.968 23.03 147.828 22.49C146.688 21.95 145.778 21.17 145.098 20.15C144.438 19.11 144.078 17.87 144.018 16.43C143.998 16.11 143.988 15.71 143.988 15.23C143.988 14.73 143.998 14.32 144.018 14C144.078 12.54 144.438 11.3 145.098 10.28C145.758 9.24 146.658 8.45 147.798 7.91C148.958 7.37 150.278 7.1 151.758 7.1C153.138 7.1 154.318 7.3 155.298 7.7C156.278 8.08 157.078 8.56 157.698 9.14C158.318 9.72 158.778 10.32 159.078 10.94C159.398 11.54 159.568 12.07 159.588 12.53C159.608 12.73 159.538 12.91 159.378 13.07C159.218 13.21 159.038 13.28 158.838 13.28H155.028C154.808 13.28 154.638 13.23 154.518 13.13C154.398 13.03 154.288 12.88 154.188 12.68C153.948 12.06 153.638 11.62 153.258 11.36C152.898 11.1 152.428 10.97 151.848 10.97C151.048 10.97 150.428 11.23 149.988 11.75C149.568 12.27 149.338 13.07 149.298 14.15C149.278 14.95 149.278 15.66 149.298 16.28C149.338 17.38 149.568 18.18 149.988 18.68C150.428 19.18 151.048 19.43 151.848 19.43C152.468 19.43 152.958 19.3 153.318 19.04C153.678 18.78 153.968 18.34 154.188 17.72C154.288 17.52 154.398 17.37 154.518 17.27C154.638 17.17 154.808 17.12 155.028 17.12H158.838C159.038 17.12 159.218 17.2 159.378 17.36C159.538 17.5 159.608 17.67 159.588 17.87C159.568 18.21 159.468 18.61 159.288 19.07C159.108 19.51 158.828 19.98 158.448 20.48C158.068 20.98 157.568 21.45 156.948 21.89C156.348 22.31 155.618 22.65 154.758 22.91C153.898 23.17 152.898 23.3 151.758 23.3ZM168.704 23.3C167.404 23.3 166.294 23.16 165.374 22.88C164.474 22.58 163.734 22.22 163.154 21.8C162.594 21.38 162.174 20.95 161.894 20.51C161.614 20.05 161.464 19.66 161.444 19.34C161.424 19.12 161.494 18.94 161.654 18.8C161.814 18.64 161.984 18.56 162.164 18.56H165.584C165.644 18.56 165.694 18.57 165.734 18.59C165.774 18.61 165.834 18.65 165.914 18.71C166.174 18.85 166.434 19.03 166.694 19.25C166.954 19.45 167.254 19.63 167.594 19.79C167.934 19.95 168.344 20.03 168.824 20.03C169.384 20.03 169.854 19.92 170.234 19.7C170.614 19.48 170.804 19.15 170.804 18.71C170.804 18.39 170.714 18.13 170.534 17.93C170.354 17.71 169.984 17.5 169.424 17.3C168.884 17.1 168.064 16.9 166.964 16.7C165.924 16.46 165.014 16.15 164.234 15.77C163.454 15.37 162.854 14.86 162.434 14.24C162.014 13.6 161.804 12.83 161.804 11.93C161.804 11.13 162.064 10.36 162.584 9.62C163.104 8.88 163.864 8.28 164.864 7.82C165.864 7.34 167.094 7.1 168.554 7.1C169.714 7.1 170.714 7.24 171.554 7.52C172.414 7.78 173.134 8.12 173.714 8.54C174.314 8.96 174.764 9.39 175.064 9.83C175.364 10.27 175.524 10.67 175.544 11.03C175.564 11.23 175.504 11.41 175.364 11.57C175.224 11.71 175.064 11.78 174.884 11.78H171.764C171.684 11.78 171.604 11.77 171.524 11.75C171.444 11.71 171.374 11.67 171.314 11.63C171.074 11.51 170.834 11.35 170.594 11.15C170.354 10.95 170.074 10.77 169.754 10.61C169.434 10.45 169.034 10.37 168.554 10.37C168.014 10.37 167.594 10.49 167.294 10.73C166.994 10.97 166.844 11.28 166.844 11.66C166.844 11.92 166.924 12.16 167.084 12.38C167.264 12.6 167.614 12.8 168.134 12.98C168.674 13.16 169.504 13.36 170.624 13.58C172.004 13.8 173.104 14.16 173.924 14.66C174.744 15.14 175.324 15.71 175.664 16.37C176.004 17.01 176.174 17.69 176.174 18.41C176.174 19.37 175.884 20.22 175.304 20.96C174.744 21.7 173.904 22.28 172.784 22.7C171.664 23.1 170.304 23.3 168.704 23.3Z" fill="#3577F0"/>
</svg>
